<?xml version="1.0" encoding="UTF-8" standalone="no"?>
<!-- Created with Inkscape (http://www.inkscape.org/) -->

<svg
   width="190.30461mm"
   height="62.156216mm"
   viewBox="0 0 190.30461 62.156216"
   version="1.1"
   id="svg5"
   xml:space="preserve"
   xmlns:inkscape="http://www.inkscape.org/namespaces/inkscape"
   xmlns:sodipodi="http://sodipodi.sourceforge.net/DTD/sodipodi-0.dtd"
   xmlns="http://www.w3.org/2000/svg"
   xmlns:svg="http://www.w3.org/2000/svg"><sodipodi:namedview
     id="namedview7"
     pagecolor="#ffffff"
     bordercolor="#000000"
     borderopacity="0.25"
     inkscape:showpageshadow="2"
     inkscape:pageopacity="0.0"
     inkscape:pagecheckerboard="0"
     inkscape:deskcolor="#d1d1d1"
     inkscape:document-units="mm"
     showgrid="false" /><defs
     id="defs2" /><g
     inkscape:label="Layer 1"
     inkscape:groupmode="layer"
     id="layer1"
     transform="translate(-8.9565823,-6.9731238)"><g
       transform="matrix(0.35277777,0,0,-0.35277777,-0.90063372,298.06858)"
       id="g10"
       inkscape:export-filename="g10.svg"
       inkscape:export-xdpi="96"
       inkscape:export-ydpi="96"><g
         id="g12" /><g
         id="g14" /><g
         id="g916"><g
           transform="matrix(0.5454546,0,0,-0.5454546,0,841.89)"
           id="g918"><path
             id="path920"
             style="fill:none;stroke:#000000;stroke-width:18.2095;stroke-linecap:round;stroke-linejoin:round;stroke-miterlimit:10;stroke-dasharray:none;stroke-opacity:1"
             d="m 753.1885,124.2754 c 0.4303,-7.7002 0.5529,-14.4249 0.3677,-20.1743 -0.1257,-3.8897 -0.7396,-7.65383 -1.8418,-11.29246 -1.1014,-3.63903 -2.7264,-7.20407 -4.875,-10.69511 -2.1486,-3.49185 -5.0154,-6.55919 -8.6003,-9.20205 -3.5858,-2.64325 -8.2641,-4.5964 -14.0349,-5.85945 -5.7705,-1.26227 -12.4387,-1.87088 -20.0048,-1.82585 -7.5665,0.04504 -15.1837,1.00358 -22.8514,2.8756 -7.6678,1.8728 -15.0466,4.21806 -22.1366,7.03578 -7.0892,2.81732 -13.082,6.29638 -17.9784,10.43718 -4.8967,4.14079 -8.5795,8.93867 -11.0483,14.39364 -2.4685,5.45532 -4.0068,11.34952 -4.6151,17.68252 -0.6079,6.333 0.5384,12.8117 3.4391,19.436 2.9014,6.6248 7.1505,12.6219 12.7474,17.9913 5.5969,5.3683 12.0131,10.758 19.2487,16.1689 7.2354,5.4102 15.0684,11.6532 23.4989,18.7291 8.4296,7.0767 16.7753,14.6447 25.0368,22.7042 8.2615,8.0591 15.1256,15.4565 20.5924,22.1921 5.4668,6.7353 8.5851,12.4401 9.3551,17.1144 0.7707,4.6747 -0.7437,9.0824 -4.5432,13.2231 -3.7999,4.1406 -8.9499,8.2198 -15.45,12.2374 -6.5002,4.0172 -13.1378,7.146 -19.913,9.3865 -6.7748,2.2405 -12.707,3.3907 -17.7967,3.4508 -5.0901,0.0609 -9.3327,-0.8545 -12.7279,-2.746 -3.3952,-1.892 -5.7654,-3.6331 -7.1106,-5.2233 -1.8711,-2.2108 -1.4213,-3.9166 1.3495,-5.1172" /></g><g
           transform="matrix(0.5454546,0,0,-0.5454546,0,841.89)"
           id="g922"><path
             id="path924"
             style="fill:none;stroke:#000000;stroke-width:18.2095;stroke-linecap:round;stroke-linejoin:round;stroke-miterlimit:10;stroke-dasharray:none;stroke-opacity:1"
             d="m 92.84509,120.7861 c -2.58502,1.0784 -4.00279,1.6702 -4.25332,1.7755 -0.17641,0.0735 -0.0049,0.0585 0.51448,-0.0451 0.51978,-0.1027 2.73693,-0.5423 6.65143,-1.3188 3.9145,-0.776 8.53082,-1.9121 13.84892,-3.4083 5.318,-1.4954 10.6586,-3.121 16.0217,-4.877 5.3623,-1.7555 10.0352,-3.5346 14.0186,-5.3374 3.9831,-1.802 7.3173,-3.4415 10.0027,-4.9185 2.6855,-1.4757 4.788,-2.5773 6.3078,-3.3046 1.5198,-0.72732 2.6504,-0.36718 3.392,1.0804 0.7415,1.4468 1.1443,3.4907 1.2083,6.1316 0.0636,2.6406 -0.0266,5.7128 -0.2708,9.2165 -0.2446,3.5029 -0.3326,8.1896 -0.264,14.06 0.0699,5.8697 0.5799,12.5123 1.5301,19.9278 0.9507,7.4162 2.4238,13.4715 4.4195,18.1658 1.9949,4.6951 4.0975,7.911 6.3077,9.6477 2.2102,1.7355 4.4072,2.6757 6.5911,2.8206 2.1839,0.1442 4.0311,-0.3269 5.5415,-1.413 1.5103,-1.0862 2.6285,-2.4441 3.3544,-4.0738 0.7263,-1.6292 1.1256,-3.3472 1.1979,-5.1539 0.1026,-2.5931 -2.3966,-6.3878 -7.4975,-11.3841" /></g><g
           transform="matrix(0.5454546,0,0,-0.5454546,0,841.89)"
           id="g926"><path
             id="path928"
             style="fill:none;stroke:#000000;stroke-width:18.2095;stroke-linecap:round;stroke-linejoin:round;stroke-miterlimit:10;stroke-dasharray:none;stroke-opacity:1"
             d="m 125.2462,63.83031 c -1.4946,-0.0313 -2.9574,0.2441 -4.3885,0.82621 -1.4307,0.58251 -2.8392,3.47114 -4.2257,8.66587 -1.3864,5.19394 -2.2569,12.99358 -2.6112,23.39894 -0.5127,15.07597 -0.5355,41.37897 -0.0683,78.90877" /></g><g
           transform="matrix(0.5454546,0,0,-0.5454546,0,841.89)"
           id="g930"><path
             id="path932"
             style="fill:none;stroke:#000000;stroke-width:18.2095;stroke-linecap:round;stroke-linejoin:round;stroke-miterlimit:10;stroke-dasharray:none;stroke-opacity:1"
             d="m 61.71536,242.2412 c -0.99521,0.1606 -1.45399,-0.0577 -1.37636,-0.655 0.05517,-0.4255 1.84903,-1.071 5.38158,-1.9364 3.53215,-0.8649 9.2778,-2.0148 17.23695,-3.4497 7.95995,-1.4345 18.44147,-3.0042 31.44447,-4.7093 13.0039,-1.7051 23.9728,-2.9425 32.9068,-3.7124 8.9344,-0.7698 16.2353,-1.2814 21.9025,-1.5347 9.0323,-0.4043 15.1977,0.1258 18.4962,1.5904" /></g><g
           transform="matrix(0.5454546,0,0,-0.5454546,0,841.89)"
           id="g934"><path
             id="path936"
             style="fill:none;stroke:#000000;stroke-width:18.2095;stroke-linecap:round;stroke-linejoin:round;stroke-miterlimit:10;stroke-dasharray:none;stroke-opacity:1"
             d="m 142.7579,173.9994 c -1.4147,-1.7421 -2.0872,-1.4013 -2.0174,1.0223 0.0519,1.8031 0.7376,9.5164 2.0574,23.14 1.3197,13.6243 2.3484,25.327 3.086,35.1081 0.738,9.7807 1.4116,19.5554 2.0208,29.3243 0.6091,9.7685 1.1322,19.3018 1.5693,28.5997 0.437,9.2971 0.5857,15.8855 0.4461,19.765 -0.1396,3.8796 -0.213,5.9292 -0.2204,6.1489 l -0.0136,0.1524 -0.0215,-0.2042 c -0.0217,-0.358 -0.3001,-4.9663 -0.8351,-13.8248" /></g><g
           transform="matrix(0.5454546,0,0,-0.5454546,0,841.89)"
           id="g938"><path
             id="path940"
             style="fill:none;stroke:#000000;stroke-width:18.2095;stroke-linecap:round;stroke-linejoin:round;stroke-miterlimit:10;stroke-dasharray:none;stroke-opacity:1"
             d="m 147.724,235.142 c -2.0872,-0.7303 -4.4488,-0.2206 -7.0848,1.5291 -1.7701,1.1757 -3.7959,3.5846 -6.0774,7.2267 -2.2819,3.6418 -4.8828,8.672 -7.8025,15.0905 -2.9209,6.4198 -5.9413,12.6272 -9.0612,18.6224 -3.1203,5.9952 -5.7721,10.553 -7.9553,13.6732 -2.1833,3.1202 -3.8248,5.2493 -4.9247,6.3871 -1.4842,1.5354 -2.204,1.3018 -2.1592,-0.7008" /></g><g
           transform="matrix(0.5454546,0,0,-0.5454546,0,841.89)"
           id="g942"><path
             id="path944"
             style="fill:none;stroke:#000000;stroke-width:18.2095;stroke-linecap:round;stroke-linejoin:round;stroke-miterlimit:10;stroke-dasharray:none;stroke-opacity:1"
             d="m 159.4603,233.4033 c -1.174,-0.2985 -1.8975,-0.0336 -2.1705,0.7946 -0.1934,0.5839 0.6662,1.9581 2.579,4.1224 1.9123,2.1648 4.6033,4.5998 8.0729,7.305 5.0577,3.9435 12.9621,9.2869 23.7133,16.0302" /></g><g
           transform="matrix(0.5454546,0,0,-0.5454546,0,841.89)"
           id="g946"><path
             id="path948"
             style="fill:none;stroke:#000000;stroke-width:18.2095;stroke-linecap:round;stroke-linejoin:round;stroke-miterlimit:10;stroke-dasharray:none;stroke-opacity:1"
             d="m 224.3526,97.89587 c 0.0703,-3.83746 -0.1478,-5.2712 -0.6542,-4.30122 -0.3635,0.69624 -1.2719,2.43724 -2.7254,5.22299 -1.4535,2.78616 -3.4272,7.07506 -5.9211,12.86666 -2.4943,5.7917 -5.3644,13.0412 -8.6102,21.7485 -3.2457,8.7077 -6.5335,17.4313 -9.8634,26.1707 -3.331,8.7399 -5.941,15.407 -7.83,20.0014 -2.8958,7.0447 -4.1535,12.968 -3.7733,17.7699" /></g><g
           transform="matrix(0.5454546,0,0,-0.5454546,0,841.89)"
           id="g950"><path
             id="path952"
             style="fill:none;stroke:#000000;stroke-width:18.2095;stroke-linecap:round;stroke-linejoin:round;stroke-miterlimit:10;stroke-dasharray:none;stroke-opacity:1"
             d="m 204.5053,162.178 c -0.5422,-0.5615 -0.8063,1.3707 -0.7924,5.7966 0.0136,4.4259 1.11,17.3285 3.2894,38.7079 2.1803,21.3785 3.9656,38.391 5.3559,51.0374 1.3899,12.646 2.6376,22.5105 3.743,29.5936 1.1062,7.0838 2.0695,12.563 2.8899,16.4374 0.8209,3.8744 1.2843,6.0612 1.3902,6.5603" /></g><g
           transform="matrix(0.5454546,0,0,-0.5454546,0,841.89)"
           id="g954"><path
             id="path956"
             style="fill:none;stroke:#000000;stroke-width:18.2095;stroke-linecap:round;stroke-linejoin:round;stroke-miterlimit:10;stroke-dasharray:none;stroke-opacity:1"
             d="m 265.0472,87.38782 c -1.5712,-0.57966 -3.0283,-0.38833 -4.3714,0.574 -0.9187,0.65863 -1.719,2.25738 -2.401,4.79625 -0.9737,3.62723 -2.6409,16.65523 -5.0015,39.08403" /></g><g
           transform="matrix(0.5454546,0,0,-0.5454546,0,841.89)"
           id="g958"><path
             id="path960"
             style="fill:none;stroke:#000000;stroke-width:18.2095;stroke-linecap:round;stroke-linejoin:round;stroke-miterlimit:10;stroke-dasharray:none;stroke-opacity:1"
             d="m 214.4823,163.7319 c -0.0397,-1.0774 0.4805,-2.0565 1.5608,-2.9373 1.0795,-0.8813 4.0955,-1.982 9.0481,-3.3022 4.9527,-1.3198 11.4687,-2.878 19.5481,-4.6746 8.0794,-1.7962 16.1439,-3.3721 24.1936,-4.7277 12.3329,-2.0777 22.6345,-2.3479 30.9046,-0.8104" /></g><g
           transform="matrix(0.5454546,0,0,-0.5454546,0,841.89)"
           id="g962"><path
             id="path964"
             style="fill:none;stroke:#000000;stroke-width:18.2095;stroke-linecap:round;stroke-linejoin:round;stroke-miterlimit:10;stroke-dasharray:none;stroke-opacity:1"
             d="m 264.4999,151.4525 c -1.1666,0.4757 -1.8206,1.6282 -1.9618,3.4576 -0.1409,1.8298 0.0214,5.1129 0.4868,9.8493 0.4651,4.736 1.662,11.9276 3.5908,21.5749 1.9283,9.6476 4.1179,19.6056 6.5686,29.8738 2.4507,10.269 4.5121,18.6811 6.1841,25.2363 1.6721,6.5544 3.0203,12.4002 4.0449,17.5374 1.6309,8.1795 2.6775,14.1338 3.1397,17.863" /></g><g
           transform="matrix(0.5454546,0,0,-0.5454546,0,841.89)"
           id="g966"><path
             id="path968"
             style="fill:none;stroke:#000000;stroke-width:18.2095;stroke-linecap:round;stroke-linejoin:round;stroke-miterlimit:10;stroke-dasharray:none;stroke-opacity:1"
             d="m 230.0017,199.3159 c -2.6332,-0.7153 -4.0321,-1.4916 -4.1965,-2.3289 -0.1159,-0.5873 7.6937,-1.5699 23.4288,-2.9481 24.7191,-2.1659 42.8596,-1.5141 54.4215,1.9554" /></g><g
           transform="matrix(0.5454546,0,0,-0.5454546,0,841.89)"
           id="g970"><path
             id="path972"
             style="fill:none;stroke:#000000;stroke-width:18.2095;stroke-linecap:round;stroke-linejoin:round;stroke-miterlimit:10;stroke-dasharray:none;stroke-opacity:1"
             d="m 233.3349,247.0882 c 11.4459,-0.0459 23.3497,-0.2925 35.7114,-0.74 12.0837,-0.4362 26.7987,0.6174 44.145,3.1606" /></g><g
           transform="matrix(0.5454546,0,0,-0.5454546,0,841.89)"
           id="g974"><path
             id="path976"
             style="fill:none;stroke:#000000;stroke-width:18.2095;stroke-linecap:round;stroke-linejoin:round;stroke-miterlimit:10;stroke-dasharray:none;stroke-opacity:1"
             d="m 227.7229,296.9164 c -1.1122,0.6064 -1.7874,0.9749 -2.0256,1.1056 -0.1665,0.091 0.1308,0.1649 0.8918,0.2217 0.7618,0.0569 2.498,0.187 5.2086,0.3902 2.7102,0.2032 8.1136,0.2323 16.2102,0.0873 8.097,-0.1454 19.0004,-0.9974 32.7102,-2.5559 20.3911,-2.3178 42.627,-4.2586 66.7077,-5.8225" /></g><g
           transform="matrix(0.5454546,0,0,-0.5454546,0,841.89)"
           id="g978"><path
             id="path980"
             style="fill:none;stroke:#000000;stroke-width:18.2095;stroke-linecap:round;stroke-linejoin:round;stroke-miterlimit:10;stroke-dasharray:none;stroke-opacity:1"
             d="m 443.0927,39.88802 c -1.6229,-0.25643 -3.3403,-0.03713 -5.1524,0.65791 -1.2063,0.46256 -2.0008,2.18542 -2.3834,5.16858 -0.5469,4.25939 1.7794,19.25537 6.9789,44.98796" /></g><g
           transform="matrix(0.5454546,0,0,-0.5454546,0,841.89)"
           id="g982"><path
             id="path984"
             style="fill:none;stroke:#000000;stroke-width:18.2095;stroke-linecap:round;stroke-linejoin:round;stroke-miterlimit:10;stroke-dasharray:none;stroke-opacity:1"
             d="m 377.633,121.4864 c -1.2146,-0.3511 -1.7089,-0.8419 -1.4829,-1.4721 0.1594,-0.4471 2.3655,-0.9874 6.6184,-1.621 4.2533,-0.6336 10.7927,-1.4834 19.6182,-2.5494 8.8259,-1.0664 19.2395,-2.2552 31.2408,-3.5664 12.0013,-1.3105 22.7872,-2.2653 32.3579,-2.8644 14.8912,-0.9313 25.6782,0.3193 32.3609,3.752" /></g><g
           transform="matrix(0.5454546,0,0,-0.5454546,0,841.89)"
           id="g986"><path
             id="path988"
             style="fill:none;stroke:#000000;stroke-width:18.2095;stroke-linecap:round;stroke-linejoin:round;stroke-miterlimit:10;stroke-dasharray:none;stroke-opacity:1"
             d="m 378.9305,157.5103 c -0.403,-2.5257 -0.613,-3.8451 -0.6302,-3.9581 -0.0131,-0.0789 -0.0114,0.0653 0.005,0.4324 0.0165,0.3676 0.1565,3.5203 0.4199,9.458 0.2646,5.9377 0.6462,14.8966 1.145,26.8768 0.4987,11.9809 0.9819,27.0634 1.4496,45.2476 0.4673,18.1846 0.718,33.8389 0.7521,46.9631 0.0337,13.1242 0.1498,23.6626 0.3482,31.6152 0.1992,7.953 0.759,14.612 1.6794,19.977" /></g><g
           transform="matrix(0.5454546,0,0,-0.5454546,0,841.89)"
           id="g990"><path
             id="path992"
             style="fill:none;stroke:#000000;stroke-width:18.2095;stroke-linecap:round;stroke-linejoin:round;stroke-miterlimit:10;stroke-dasharray:none;stroke-opacity:1"
             d="m 416.6661,158.2289 c -1.1112,-1.0459 -0.1034,-1.876 3.0233,-2.49 3.1262,-0.6144 8.2532,-1.327 15.3809,-2.1379 7.1282,-0.8104 15.7572,-1.8268 25.8873,-3.0493 10.1304,-1.2221 18.7992,-2.1458 26.0063,-2.7711 10.7696,-0.9343 17.2019,0.5891 19.2969,4.5703" /></g><g
           transform="matrix(0.5454546,0,0,-0.5454546,0,841.89)"
           id="g994"><path
             id="path996"
             style="fill:none;stroke:#000000;stroke-width:18.2095;stroke-linecap:round;stroke-linejoin:round;stroke-miterlimit:10;stroke-dasharray:none;stroke-opacity:1"
             d="m 433.437,175.4895 c -1.5604,-0.9683 -2.4152,0.2663 -2.5643,3.7037 -0.1482,3.4382 -0.1366,9.2048 0.035,17.2998 0.1712,8.095 0.4025,16.2554 0.6939,24.4812 0.291,8.2254 0.9316,15.7093 1.9217,22.4518 1.5154,10.3285 4.3426,17.8831 8.4817,22.6636" /></g><g
           transform="matrix(0.5454546,0,0,-0.5454546,0,841.89)"
           id="g998"><path
             id="path1000"
             style="fill:none;stroke:#000000;stroke-width:18.2095;stroke-linecap:round;stroke-linejoin:round;stroke-miterlimit:10;stroke-dasharray:none;stroke-opacity:1"
             d="m 429.6606,189.4739 c -1.1184,-1.0892 -1.4961,-2.273 -1.1331,-3.5513 0.2507,-0.881 2.2262,-1.9382 5.9266,-3.1717 3.7,-1.2335 9.6598,-2.8214 17.8795,-4.7637 8.2189,-1.9422 17.0329,-3.9697 26.4421,-6.0822 9.4091,-2.1118 17.3891,-3.5643 23.9399,-4.3576 6.5507,-0.7933 11.4275,-1.1974 14.6305,-1.2123 3.2029,-0.0153 5.5445,0.4884 7.0249,1.5111 1.4803,1.0227 2.6412,2.4231 3.4825,4.2013 0.8418,1.7783 1.5677,4.0444 2.1779,6.7983 0.6097,2.7539 1.2629,6.4919 1.9595,11.2138 0.6963,4.7223 1.5445,9.8766 2.5448,15.4627 1.0003,5.5854 1.9891,10.3644 2.9662,14.337 1.4307,5.8095 3.9333,13.7432 7.5077,23.8011" /></g><g
           transform="matrix(0.5454546,0,0,-0.5454546,0,841.89)"
           id="g1002"><path
             id="path1004"
             style="fill:none;stroke:#000000;stroke-width:18.2095;stroke-linecap:round;stroke-linejoin:round;stroke-miterlimit:10;stroke-dasharray:none;stroke-opacity:1"
             d="m 450.2862,224.6368 c -1.5223,0.0448 -2.6507,-0.2764 -3.3853,-0.9639 -0.5044,-0.4731 0.4302,-1.0161 2.8038,-1.6291 2.3733,-0.613 6.8742,-1.5226 13.5026,-2.7288 6.6282,-1.2057 14.2835,-2.5145 22.966,-3.9261 12.9848,-2.1123 26.3389,-3.3006 40.0621,-3.5648" /></g><g
           transform="matrix(0.5454546,0,0,-0.5454546,0,841.89)"
           id="g1006"><path
             id="path1008"
             style="fill:none;stroke:#000000;stroke-width:18.2095;stroke-linecap:round;stroke-linejoin:round;stroke-miterlimit:10;stroke-dasharray:none;stroke-opacity:1"
             d="m 451.72,248.9811 c -4.9264,0.3828 -7.4842,0.5811 -7.6733,0.5952 l -0.0885,0.01 0.142,-0.003 c 0.1693,-0.006 1.8324,-0.0646 4.9892,-0.1766 3.1573,-0.112 8.0459,-0.6579 14.6658,-1.6376 6.62,-0.9798 14.0357,-2.1412 22.2471,-3.4842 8.2127,-1.3431 16.5424,-2.3524 24.9891,-3.0278 12.7252,-1.0188 21.6061,1.1609 26.6428,6.5391" /></g><g
           transform="matrix(0.5454546,0,0,-0.5454546,0,841.89)"
           id="g1010"><path
             id="path1012"
             style="fill:none;stroke:#000000;stroke-width:18.2095;stroke-linecap:round;stroke-linejoin:round;stroke-miterlimit:10;stroke-dasharray:none;stroke-opacity:1"
             d="m 401.1304,293.68 c -0.5393,-0.4996 -0.486,-1.0122 0.16,-1.5378 0.6451,-0.5255 3.3268,-1.0377 8.0449,-1.5364 4.7177,-0.4988 12.1833,-1.2991 22.3967,-2.4011 10.213,-1.1017 22.6043,-2.3835 37.1739,-3.8456 14.5697,-1.4624 29.2762,-2.9611 44.1197,-4.496 14.844,-1.5349 30.3393,-3.5877 46.4859,-6.1587 16.1474,-2.5717 28.0085,-4.8694 35.5833,-6.8933" /></g><g
           transform="matrix(0.5454546,0,0,-0.5454546,0,841.89)"
           id="g1014"><path
             id="path1016"
             style="fill:none;stroke:#000000;stroke-width:18.2095;stroke-linecap:round;stroke-linejoin:round;stroke-miterlimit:10;stroke-dasharray:none;stroke-opacity:1"
             d="m 484.4797,105.107 c -1.4259,1.1325 -2.0714,4.7276 -1.9363,10.7851 0.1346,6.058 0.6133,13.7215 1.4362,22.9906 0.8233,9.2698 1.8848,20.1281 3.1845,32.5747 1.2997,12.447 2.8854,25.6345 4.757,39.5626 1.8712,13.9276 3.9021,27.8165 6.0929,41.6666 2.1907,13.8497 4.2476,26.4826 6.1707,37.8989 1.9222,11.4159 3.5679,21.4149 4.9371,29.9971 1.3691,8.5814 3.6537,16.5862 6.8535,24.0146" /></g><g
           transform="matrix(0.5454546,0,0,-0.5454546,-2.32227,835.6279)"
           id="g1018"><path
             id="path1020"
             style="fill:none;stroke:#000000;stroke-width:18.2095;stroke-linecap:round;stroke-linejoin:round;stroke-miterlimit:10;stroke-dasharray:none;stroke-opacity:1"
             d="m 792.9447,204.5031 c -0.1192,-3.2417 -0.1815,-4.9367 -0.1868,-5.085 -0.004,-0.1043 0.0199,-0.0101 0.0705,0.2825 0.0498,0.2934 0.4688,2.7376 1.2569,7.3325 0.7877,4.5954 1.4434,9.7831 1.9673,15.5632 0.5238,5.7805 1.1124,14.7291 1.7659,26.8459 0.6535,12.1168 1.0333,19.5324 1.1394,22.2467 0.1073,2.7135 0.1292,4.5532 0.0658,5.5193 -0.089,1.3436 -1.1941,0.4641 -3.3153,-2.6383" /></g><g
           transform="matrix(0.5454546,0,0,-0.5454546,-2.32227,835.6279)"
           id="g1022"><path
             id="path1024"
             style="fill:none;stroke:#000000;stroke-width:18.2095;stroke-linecap:round;stroke-linejoin:round;stroke-miterlimit:10;stroke-dasharray:none;stroke-opacity:1"
             d="m 781.8008,146.9951 c -2.3251,-3.9703 -3.5331,-6.0326 -3.624,-6.1868 -0.0639,-0.109 0.0154,-0.0648 0.2381,0.1325 0.3158,0.2797 4.531,4.0145 12.6455,11.2045" /></g><g
           transform="matrix(0.5454546,0,0,-0.5454546,-0.711326,824.4886)"
           id="g1026"><path
             id="path1028"
             style="fill:none;stroke:#000000;stroke-width:18.2095;stroke-linecap:round;stroke-linejoin:round;stroke-miterlimit:10;stroke-dasharray:none;stroke-opacity:1"
             d="m 824.8083,175.4955 c 4.3319,-1.0167 9.3504,-1.9928 15.0556,-2.9281 5.7056,-0.9362 15.3093,-2.5609 28.8111,-4.8743 13.5018,-2.3138 23.8824,-3.8279 31.1418,-4.5425" /></g><g
           transform="matrix(0.5454546,0,0,-0.5454546,-0.711326,824.4886)"
           id="g1030"><path
             id="path1032"
             style="fill:none;stroke:#000000;stroke-width:18.2095;stroke-linecap:round;stroke-linejoin:round;stroke-miterlimit:10;stroke-dasharray:none;stroke-opacity:1"
             d="m 859.5319,137.0564 c -0.8572,-2.2334 -1.3253,-3.4518 -1.4043,-3.6552 -0.0545,-0.1423 -0.0574,0.1654 -0.009,0.9232 0.049,0.7581 0.2703,4.1877 0.6639,10.2887 0.3936,6.101 0.9308,14.5429 1.6118,25.3257 0.681,10.7832 1.2715,22.5533 1.7717,35.3102 0.4998,12.757 1.0221,24.2993 1.567,34.627 0.839,15.8934 4.061,26.1582 9.6661,30.7945" /></g><g
           transform="matrix(0.5454546,0,0,-0.5454546,0.01046075,831.3076)"
           id="g1034"><path
             id="path1036"
             style="fill:none;stroke:#000000;stroke-width:18.2095;stroke-linecap:round;stroke-linejoin:round;stroke-miterlimit:10;stroke-dasharray:none;stroke-opacity:1"
             d="m 941.0897,211.7878 c -3.2021,0.0692 -4.6385,0.1576 -4.3093,0.2652 0.2349,0.0771 0.8213,0.2698 1.7594,0.5779 0.9385,0.3078 3.3391,0.4355 7.2018,0.3832 3.862,-0.052 8.1129,-0.6929 12.7527,-1.9228 4.6398,-1.2299 9.0069,-3.0838 13.1012,-5.5616 4.0947,-2.4774 7.0374,-5.3578 8.8279,-8.6411 1.7904,-3.2841 2.5765,-6.8063 2.358,-10.5665 -0.2183,-3.7603 -1.542,-7.4856 -3.971,-11.176 -2.4296,-3.6902 -5.2377,-6.7758 -8.4244,-9.2568 -3.1875,-2.4806 -6.5205,-4.1615 -9.999,-5.0425 -3.4784,-0.8811 -6.8867,-0.8853 -10.225,-0.0125 -3.3386,0.8735 -6.2906,2.7506 -8.8558,5.6313 -2.5654,2.881 -4.7525,6.5128 -6.5616,10.8954 -1.8086,4.3833 -3.2387,9.3842 -4.2901,15.0026 -1.0518,5.6187 -1.5591,11.3092 -1.5219,17.0714 0.0364,5.7627 1.1016,12.1308 3.1955,19.1044 2.0947,6.9735 5.5264,13.515 10.2951,19.6243 4.768,6.1093 10.0112,10.6993 15.7295,13.7698 5.7184,3.071 11.4499,5.061 17.1948,5.9699 5.7447,0.9086 11.215,1.2943 16.4109,1.1572 5.1954,-0.1382 9.9386,-0.8392 14.2296,-2.103 6.23,-1.8339 14.596,-7.1553 25.099,-15.9641" /></g><g
           transform="matrix(0.6293093,0,0,-0.5454546,340.7224,806.3489)"
           id="g1038" /><g
           transform="matrix(0.60995,0,0,0.5454546,32.84866,687.5649)"
           id="g1040" /><g
           transform="matrix(1.039915,0,0,-0.5454546,422.0855,758.9125)"
           id="g1042" /></g></g></g></svg>
