<?xml version="1.0" standalone="no"?>
<!DOCTYPE svg PUBLIC "-//W3C//DTD SVG 20010904//EN"
 "http://www.w3.org/TR/2001/REC-SVG-20010904/DTD/svg10.dtd">
<svg version="1.0" xmlns="http://www.w3.org/2000/svg"
 width="1492.000000pt" height="360.000000pt" viewBox="0 0 1492.000000 360.000000"
 preserveAspectRatio="xMidYMid meet">

<g transform="translate(0.000000,360.000000) scale(0.100000,-0.100000)"
fill="#000000" stroke="none">
<path d="M2180 3583 c-39 -14 -91 -80 -116 -147 -92 -246 -288 -575 -457 -766
-101 -114 -107 -125 -107 -187 0 -79 39 -126 118 -144 51 -11 100 8 157 62 29
27 55 49 58 49 4 0 7 -485 7 -1078 0 -1193 -3 -1140 64 -1219 20 -23 57 -49
85 -62 51 -21 52 -21 750 -19 689 3 700 3 727 24 50 37 68 70 68 124 0 54 -18
87 -68 124 -26 20 -45 21 -289 26 l-262 5 -3 344 c-2 269 1 346 10 353 7 4
112 8 234 8 213 0 222 1 255 23 91 61 89 181 -5 251 -25 19 -45 21 -259 26
l-232 5 -3 220 c-1 121 0 230 3 243 5 22 6 22 226 22 257 0 273 4 314 75 43
72 25 144 -49 199 -25 19 -45 21 -259 26 l-232 5 0 240 0 240 257 5 c239 5
258 6 284 26 51 38 69 71 68 128 0 61 -19 97 -67 126 -29 18 -51 20 -229 20
-126 0 -199 4 -203 10 -4 6 11 46 33 88 48 94 114 247 137 323 23 75 14 123
-31 166 -46 43 -105 52 -166 25 -56 -24 -77 -53 -121 -167 -58 -152 -177 -376
-223 -422 -23 -23 -28 -23 -234 -23 -163 0 -212 3 -216 13 -2 7 20 64 50 127
64 136 126 309 126 353 0 42 -31 92 -72 117 -31 19 -94 25 -128 13z m424 -939
c9 -24 7 -447 -2 -462 -7 -9 -59 -12 -228 -10 l-219 3 -3 243 -2 242 224 0
c195 0 225 -2 230 -16z m-4 -793 c11 -21 15 -428 4 -455 -5 -14 -35 -16 -230
-16 l-224 0 0 238 c0 131 3 242 7 245 3 4 102 7 219 7 201 0 214 -1 224 -19z
m0 -790 c6 -13 10 -140 10 -344 0 -263 -3 -327 -14 -336 -9 -8 -78 -11 -227
-9 l-214 3 -3 340 c-1 187 0 346 3 352 3 10 56 13 219 13 203 0 216 -1 226
-19z"/>
<path d="M5804 3560 c-60 -30 -84 -79 -84 -173 0 -59 -3 -76 -16 -81 -9 -3
-287 -6 -619 -6 l-603 0 -53 -28 c-70 -36 -117 -101 -129 -179 -6 -33 -10
-349 -10 -723 0 -667 -7 -893 -36 -1200 -32 -339 -89 -666 -155 -890 -33 -110
-34 -151 -4 -197 26 -39 75 -63 128 -63 56 0 95 18 130 59 58 70 180 706 212
1111 22 287 28 475 34 1100 l6 705 1395 5 c1373 5 1396 5 1428 25 93 56 96
192 5 252 -25 17 -74 18 -713 23 l-685 5 -5 87 c-4 66 -10 94 -26 114 -52 70
-128 91 -200 54z"/>
<path d="M746 3540 c-31 -10 -71 -43 -89 -75 -7 -11 -14 -78 -17 -150 l-5
-130 -227 -5 c-209 -5 -229 -7 -254 -26 -94 -70 -92 -186 3 -250 25 -17 53
-19 246 -22 119 -2 217 -8 217 -12 0 -25 -57 -185 -90 -252 -92 -186 -207
-320 -391 -455 -103 -76 -129 -112 -129 -178 0 -50 27 -103 64 -127 51 -32
118 -21 201 33 328 213 555 537 629 898 8 40 19 78 24 83 5 5 42 8 83 6 l74
-3 5 -355 c7 -396 7 -402 78 -495 27 -36 56 -60 105 -84 67 -34 70 -35 215
-39 167 -4 198 5 239 67 28 41 29 85 5 130 -29 53 -72 71 -172 71 -101 1 -160
12 -177 36 -10 14 -13 99 -13 363 0 190 -5 373 -10 406 -12 75 -49 129 -115
170 -46 28 -55 30 -179 35 l-131 5 -5 135 c-6 155 -14 176 -84 210 -46 22 -56
23 -100 10z"/>
<path d="M8752 3230 c-205 -29 -377 -110 -520 -245 -164 -154 -237 -349 -212
-567 28 -242 136 -389 428 -581 92 -61 167 -105 562 -327 205 -115 358 -219
427 -288 115 -114 157 -274 118 -455 -47 -222 -224 -339 -540 -354 -341 -16
-568 104 -809 427 -43 58 -89 111 -103 118 -34 18 -89 7 -119 -23 -35 -35 -31
-79 21 -233 64 -189 112 -288 166 -338 116 -106 329 -155 676 -154 296 0 494
41 672 141 263 148 402 382 403 679 1 201 -59 338 -217 496 -147 147 -276 229
-820 515 -359 190 -487 317 -514 512 -20 139 20 268 109 351 102 95 231 132
434 123 317 -14 484 -124 660 -439 50 -89 73 -108 127 -108 74 0 93 43 78 183
-21 208 -57 367 -93 405 -53 60 -177 104 -396 142 -140 24 -431 35 -538 20z"/>
<path d="M10893 3021 c-54 -25 -120 -92 -145 -148 -43 -97 -13 -220 67 -275
55 -38 136 -54 194 -39 59 17 142 96 171 163 25 58 29 145 10 202 -32 97 -185
147 -297 97z"/>
<path d="M5978 2945 c-45 -25 -72 -81 -78 -165 l-5 -75 -532 -5 -533 -5 -36
-37 c-66 -65 -56 -172 19 -218 31 -19 54 -20 547 -20 283 0 521 -4 528 -8 9
-6 12 -33 10 -98 l-3 -89 -370 -5 c-355 -5 -372 -6 -410 -27 -47 -25 -85 -64
-111 -113 -18 -33 -19 -66 -19 -520 0 -478 0 -486 22 -525 23 -43 59 -81 108
-111 27 -17 59 -19 405 -24 l375 -5 0 -95 0 -95 -580 -5 c-546 -5 -582 -6
-611 -24 -91 -55 -91 -173 0 -240 27 -21 41 -21 609 -26 l582 -5 5 -137 c5
-134 5 -137 36 -175 55 -68 151 -79 216 -25 48 41 58 76 58 217 l0 125 578 0
c529 0 580 1 612 18 99 49 107 188 13 249 -25 17 -70 18 -613 23 l-585 5 0 95
0 95 375 5 c363 5 376 6 416 27 23 12 54 37 69 55 61 72 60 64 63 540 2 271
-1 458 -7 493 -13 71 -58 137 -119 172 l-47 28 -375 5 -375 5 -3 89 c-2 65 1
92 10 98 7 4 248 8 535 8 l522 0 35 30 c60 53 71 136 25 194 -41 52 -29 51
-594 56 l-530 5 -5 80 c-6 89 -28 133 -80 160 -37 19 -117 19 -152 0z m-73
-1135 l0 -105 -299 -3 c-212 -2 -303 1 -312 9 -10 8 -14 38 -14 104 0 50 3 95
7 98 4 4 144 6 312 5 l306 -3 0 -105z m920 0 l0 -105 -310 0 -310 0 -3 94 c-1
52 0 101 2 108 5 11 63 13 313 11 l308 -3 0 -105z m-920 -510 l0 -105 -299 -3
c-212 -2 -303 1 -312 9 -10 8 -14 38 -14 104 0 50 3 95 7 98 4 4 144 6 312 5
l306 -3 0 -105z m920 0 l0 -105 -310 0 -310 0 -3 94 c-1 52 0 101 2 108 5 11
63 13 313 11 l308 -3 0 -105z"/>
<path d="M12142 2349 c-127 -188 -240 -308 -353 -374 -35 -20 -67 -42 -71 -49
-10 -15 -10 -98 0 -113 5 -7 33 -20 63 -29 87 -26 117 -43 130 -77 10 -24 14
-175 19 -582 7 -591 6 -581 63 -688 70 -133 217 -207 412 -207 207 0 460 87
522 179 26 39 30 89 8 97 -9 4 -59 -4 -113 -17 -76 -18 -124 -23 -222 -23
-132 1 -181 12 -242 55 -77 55 -90 175 -86 771 3 394 4 429 21 445 16 16 45
19 252 23 215 5 236 7 262 25 35 26 95 141 91 175 l-3 25 -282 5 c-204 4 -285
8 -294 17 -9 9 -15 68 -19 179 -6 158 -7 167 -29 185 -14 11 -39 19 -62 19
-35 0 -42 -5 -67 -41z"/>
<path d="M14011 2029 c-94 -12 -194 -45 -291 -95 -248 -128 -417 -376 -460
-673 -18 -120 -8 -345 19 -439 44 -151 135 -293 248 -387 90 -74 149 -107 263
-147 93 -32 99 -32 265 -33 108 0 192 5 230 14 260 58 550 217 612 335 17 32
10 91 -11 99 -24 10 -79 -10 -196 -70 -442 -227 -792 -176 -951 139 -28 56
-85 235 -77 243 2 2 237 74 523 159 588 175 588 175 643 210 47 29 65 58 64
99 -1 35 -16 54 -58 72 -27 11 -40 29 -73 97 -66 139 -180 247 -342 322 -125
59 -250 76 -408 55z m180 -226 c104 -47 177 -143 186 -244 7 -72 -9 -111 -60
-146 -24 -17 -643 -213 -671 -213 -11 0 -5 186 8 260 34 188 116 305 248 352
73 25 223 21 289 -9z"/>
<path d="M10959 1997 c-30 -18 -74 -46 -99 -62 -59 -38 -209 -107 -290 -134
-73 -24 -91 -36 -109 -69 -24 -44 1 -75 88 -115 90 -40 144 -84 172 -139 33
-64 41 -184 37 -565 -3 -321 -5 -362 -22 -401 -23 -53 -60 -84 -126 -108 -76
-27 -104 -56 -97 -101 11 -64 -11 -61 312 -45 83 4 247 4 365 0 l215 -8 23 26
c30 34 29 79 -3 108 -13 12 -59 33 -102 45 -97 28 -155 61 -182 104 -40 66
-44 144 -36 809 l7 628 -30 30 c-39 38 -56 38 -123 -3z"/>
<path d="M830 2001 c-64 -34 -74 -66 -80 -246 l-5 -160 -285 -5 c-310 -5 -316
-7 -350 -63 -39 -63 -17 -152 47 -194 24 -16 56 -18 265 -21 184 -3 238 -6
238 -16 0 -17 -96 -169 -156 -248 -76 -99 -210 -233 -319 -320 -120 -95 -138
-122 -133 -198 6 -90 59 -140 147 -140 36 0 52 9 138 79 89 72 282 261 361
354 17 20 36 37 41 37 6 0 11 -133 13 -363 3 -361 3 -362 26 -395 61 -85 192
-83 249 5 16 25 18 64 23 442 3 288 8 415 16 418 14 5 146 -144 250 -283 45
-60 89 -116 98 -123 9 -8 36 -16 61 -19 37 -4 52 0 83 21 49 32 76 86 69 138
-10 76 -159 272 -368 484 -60 61 -109 114 -109 118 0 4 93 7 208 7 119 0 224
5 246 11 72 20 119 96 102 164 -4 14 -22 43 -41 63 l-33 37 -289 6 c-158 3
-289 6 -290 7 -2 1 -3 73 -3 161 0 148 -1 160 -23 192 -43 65 -129 87 -197 50z"/>
</g>
</svg>
