<?xml version="1.0" standalone="no"?>
<!DOCTYPE svg PUBLIC "-//W3C//DTD SVG 20010904//EN"
 "http://www.w3.org/TR/2001/REC-SVG-20010904/DTD/svg10.dtd">
<svg version="1.0" xmlns="http://www.w3.org/2000/svg"
 width="1532.000000pt" height="385.000000pt" viewBox="0 0 1532.000000 385.000000"
 preserveAspectRatio="xMidYMid meet">

<g transform="translate(0.000000,385.000000) scale(0.100000,-0.100000)"
fill="#000000" stroke="none">
<path d="M2320 3813 c-21 -20 -49 -72 -90 -172 -131 -315 -301 -589 -514 -830
-36 -41 -70 -89 -75 -107 -13 -46 4 -101 41 -136 67 -63 148 -41 244 66 32 36
65 66 71 66 10 0 13 -262 15 -1227 l3 -1228 22 -41 c28 -52 95 -111 142 -124
22 -6 318 -10 774 -10 813 0 788 -2 827 62 39 64 18 153 -47 195 -24 16 -60
19 -318 23 l-290 5 -3 395 c-2 362 -1 396 15 407 12 10 83 13 269 13 240 0
253 1 278 21 56 44 72 118 36 176 -40 66 -47 67 -335 73 l-260 5 -3 279 c-2
197 1 283 9 292 9 11 62 14 263 14 283 0 296 3 330 75 32 66 7 140 -59 178
-13 8 -110 14 -280 17 l-260 5 0 290 0 290 285 5 c247 4 289 7 317 23 42 22
63 64 63 123 0 41 -5 51 -39 85 l-39 39 -233 0 c-129 0 -241 5 -249 10 -12 8
-3 33 58 156 77 153 134 287 152 356 10 33 8 46 -10 82 -28 58 -70 80 -139 74
-72 -7 -99 -36 -146 -156 -61 -156 -191 -407 -255 -492 l-19 -25 -258 -3
c-148 -1 -264 2 -272 7 -12 8 -4 31 46 133 112 224 168 386 152 440 -19 67
-63 98 -136 98 -43 0 -58 -5 -83 -27z m515 -1218 l0 -290 -270 0 -270 0 -3
280 c-1 154 0 285 3 293 3 10 62 12 272 10 l268 -3 0 -290z m0 -860 l0 -290
-270 0 -270 0 -3 279 c-2 199 1 283 9 292 10 12 60 14 273 12 l261 -3 0 -290z
m-11 -571 c14 -5 16 -51 16 -410 l0 -404 -272 2 -273 3 -3 395 c-2 362 -1 396
15 408 12 9 81 12 259 12 133 0 249 -3 258 -6z"/>
<path d="M6320 3823 c-23 -9 -60 -45 -76 -75 -9 -17 -14 -59 -14 -116 0 -73
-3 -91 -16 -96 -9 -3 -316 -6 -683 -6 l-667 0 -52 -26 c-29 -14 -64 -41 -77
-58 -56 -73 -55 -62 -55 -795 0 -867 -15 -1232 -71 -1671 -33 -263 -107 -629
-153 -759 -42 -116 14 -211 124 -211 40 0 103 32 123 63 20 31 55 167 106 417
117 575 151 1049 151 2117 0 342 3 628 6 637 6 15 149 16 1528 16 1500 0 1521
0 1554 20 39 24 72 75 72 114 0 35 -34 97 -63 117 -19 12 -142 15 -777 19
l-755 5 -6 102 c-7 114 -23 148 -83 177 -33 16 -86 20 -116 9z"/>
<path d="M773 3781 c-60 -38 -67 -60 -73 -226 l-5 -150 -255 -5 c-184 -4 -261
-9 -278 -18 -58 -33 -80 -128 -42 -189 33 -56 43 -58 315 -63 l250 -5 -4 -30
c-7 -67 -54 -206 -101 -300 -90 -182 -245 -358 -439 -500 -93 -68 -121 -106
-121 -164 0 -49 25 -98 62 -121 54 -34 93 -23 225 66 324 215 567 578 633 945
21 116 14 110 137 107 l108 -3 6 -395 c5 -427 7 -438 65 -531 62 -100 141
-131 349 -136 174 -5 207 5 239 70 25 51 15 97 -28 135 -32 28 -38 29 -157 34
-139 6 -170 15 -196 55 -16 25 -18 64 -23 448 -6 463 -5 458 -71 524 -55 56
-88 65 -249 71 l-145 5 -5 150 c-3 86 -10 159 -17 170 -39 68 -121 93 -180 56z"/>
<path d="M9378 3160 c-222 -35 -387 -119 -529 -267 -84 -88 -119 -144 -157
-253 -23 -66 -26 -90 -26 -200 1 -108 4 -136 28 -207 33 -101 106 -214 184
-283 100 -89 316 -229 572 -370 349 -191 516 -298 607 -387 100 -97 147 -248
124 -400 -23 -152 -97 -261 -222 -321 -113 -56 -175 -67 -364 -67 -195 0 -256
13 -399 88 -98 51 -244 187 -332 308 -87 121 -106 139 -149 139 -42 0 -90 -22
-99 -45 -13 -36 -4 -88 38 -211 96 -283 127 -330 260 -394 124 -59 240 -80
487 -87 321 -9 507 23 694 117 284 143 435 378 437 679 1 211 -68 361 -240
522 -129 120 -293 221 -762 468 -409 215 -520 339 -520 578 0 186 89 306 274
369 74 25 94 28 221 27 154 -1 252 -20 353 -69 118 -58 240 -190 331 -361 34
-64 51 -86 79 -99 43 -20 87 -10 115 28 19 26 19 32 8 150 -12 119 -41 281
-61 344 -28 86 -158 142 -439 190 -103 18 -433 27 -513 14z"/>
<path d="M6493 3140 c-46 -28 -57 -54 -63 -160 l-5 -95 -585 -5 c-431 -4 -591
-8 -606 -17 -73 -42 -76 -172 -5 -220 24 -17 69 -18 611 -23 l585 -5 0 -125 0
-125 -405 -5 c-448 -6 -448 -6 -519 -73 -72 -69 -71 -53 -71 -623 l0 -512 28
-53 c18 -35 44 -65 77 -89 l49 -35 421 -5 c231 -3 421 -7 423 -8 1 -1 1 -59 0
-129 l-3 -128 -645 -5 c-701 -5 -674 -3 -710 -63 -36 -59 -20 -135 37 -173 27
-18 61 -19 673 -24 l645 -5 5 -155 c5 -161 9 -177 55 -220 22 -21 37 -25 85
-25 48 0 63 4 85 25 46 43 50 59 55 220 l5 155 650 5 c599 5 652 6 676 23 69
47 73 141 8 203 l-30 29 -652 5 -652 5 -3 119 c-2 76 1 123 8 130 7 7 148 13
428 16 l417 5 47 33 c26 18 60 54 75 80 l28 47 3 503 c2 332 -1 516 -8 542
-15 57 -68 120 -125 149 l-49 26 -411 5 -410 5 0 125 0 125 587 5 c576 5 587
5 615 26 41 31 54 62 50 117 -3 38 -11 56 -36 80 l-31 32 -593 5 -592 5 -5 95
c-3 52 -11 105 -18 118 -20 36 -72 62 -122 62 -27 0 -58 -8 -77 -20z m-55
-1199 c2 -101 -1 -136 -10 -143 -22 -13 -702 -10 -716 4 -13 13 -18 259 -5
271 4 4 169 6 367 5 l361 -3 3 -134z m1000 -3 l-3 -143 -365 0 -365 0 -3 143
-3 142 371 0 371 0 -3 -142z m-1003 -553 l0 -140 -365 0 -365 0 -3 120 c-1 66
0 130 3 143 l5 22 363 -2 362 -3 0 -140z m1000 0 l0 -140 -365 0 -365 0 -3
129 c-1 72 0 136 2 143 4 11 76 13 368 11 l363 -3 0 -140z"/>
<path d="M11417 2969 c-117 -27 -219 -173 -201 -284 8 -47 34 -103 61 -127 61
-56 182 -74 252 -39 47 24 107 90 132 145 27 60 26 159 -3 216 -37 73 -143
112 -241 89z"/>
<path d="M12632 2333 c-7 -3 -38 -44 -69 -91 -71 -109 -226 -264 -310 -312
-51 -29 -65 -42 -74 -71 -21 -66 -4 -90 85 -120 90 -30 104 -42 116 -95 5 -21
10 -253 10 -514 0 -274 4 -502 10 -538 38 -233 171 -351 416 -369 192 -14 454
63 542 159 30 33 44 82 29 102 -11 13 -26 12 -127 -10 -96 -21 -134 -24 -230
-20 -135 5 -181 18 -231 66 -62 59 -64 84 -64 657 0 469 1 503 18 520 16 16
44 19 245 23 207 5 229 7 255 25 36 26 90 134 85 171 l-3 29 -278 5 c-232 4
-279 7 -287 20 -5 8 -10 49 -11 90 -2 164 -13 251 -34 266 -18 14 -67 18 -93
7z"/>
<path d="M904 2126 c-17 -7 -41 -27 -53 -44 -20 -28 -21 -42 -21 -209 0 -126
-4 -183 -12 -191 -9 -9 -95 -12 -326 -12 l-314 0 -33 -33 c-44 -44 -53 -93
-29 -144 34 -69 52 -73 357 -73 248 0 267 -1 267 -17 0 -10 -23 -57 -52 -106
-121 -205 -307 -417 -500 -570 -107 -85 -128 -114 -128 -179 0 -95 98 -166
173 -126 82 43 334 281 470 442 55 67 106 121 111 121 8 0 13 -140 16 -435 4
-337 8 -440 18 -458 8 -13 34 -33 59 -44 52 -23 97 -19 138 14 54 43 55 48 55
558 0 393 2 470 14 470 27 0 253 -257 345 -394 63 -92 92 -116 143 -116 31 0
47 7 81 39 38 36 42 44 42 88 0 42 -7 59 -54 128 -92 136 -250 321 -410 479
-49 49 -88 93 -85 98 3 4 122 8 265 8 282 0 307 4 347 55 39 49 25 137 -27
172 -23 16 -62 19 -341 23 l-315 5 -5 185 c-5 200 -10 220 -65 256 -34 22 -94
27 -131 10z"/>
<path d="M14395 1979 c-254 -42 -497 -225 -613 -462 -106 -215 -129 -520 -56
-747 39 -121 97 -215 188 -305 121 -119 231 -177 396 -211 293 -59 727 67 938
271 56 55 62 65 62 102 0 49 -19 68 -57 58 -16 -3 -86 -35 -158 -70 -204 -100
-332 -135 -490 -135 -137 0 -268 53 -352 141 -69 74 -148 245 -155 338 l-3 35
515 154 c283 84 541 165 573 179 127 57 153 146 57 192 -27 13 -43 35 -78 105
-85 169 -262 306 -456 351 -66 16 -229 18 -311 4z m233 -229 c103 -55 164
-146 165 -247 1 -56 -16 -89 -64 -125 -14 -10 -160 -59 -324 -109 -165 -49
-308 -92 -317 -95 -16 -5 -18 4 -18 89 0 215 64 389 171 463 70 48 133 65 234
61 80 -3 97 -7 153 -37z"/>
<path d="M11405 1929 c-110 -69 -213 -121 -320 -158 -105 -37 -135 -61 -135
-106 0 -39 19 -57 87 -84 112 -44 172 -104 192 -191 14 -61 14 -823 0 -873
-16 -57 -60 -101 -128 -126 -71 -26 -100 -57 -93 -100 8 -54 13 -55 245 -45
117 5 304 6 417 3 114 -4 212 -3 222 2 24 13 42 73 28 98 -13 25 -67 53 -135
71 -107 28 -163 74 -187 153 -10 33 -12 187 -10 697 l3 656 -21 27 c-33 42
-71 36 -165 -24z"/>
</g>
</svg>
